<mxfile host="app.diagrams.net" agent="Mozilla/5.0 (Windows NT 10.0; Win64; x64) AppleWebKit/537.36 (KHTML, like Gecko) Chrome/132.0.0.0 Safari/537.36" version="26.0.14">
  <diagram name="Page-1" id="jUmUZIgY9zVZJNUiMafh">
    <mxGraphModel dx="1434" dy="772" grid="1" gridSize="10" guides="1" tooltips="1" connect="1" arrows="1" fold="1" page="1" pageScale="1" pageWidth="827" pageHeight="1169" math="0" shadow="0">
      <root>
        <mxCell id="0" />
        <mxCell id="1" parent="0" />
        <mxCell id="LtAiTIp3Q3M_i4Ze3jFF-1" value="" style="shape=ext;double=1;rounded=1;whiteSpace=wrap;html=1;" vertex="1" parent="1">
          <mxGeometry x="114" y="100" width="600" height="390" as="geometry" />
        </mxCell>
        <mxCell id="LtAiTIp3Q3M_i4Ze3jFF-2" value="&lt;h1 style=&quot;margin-top: 0px;&quot;&gt;Dataset&lt;/h1&gt;" style="text;html=1;whiteSpace=wrap;overflow=hidden;rounded=0;" vertex="1" parent="1">
          <mxGeometry x="366" y="50" width="96" height="40" as="geometry" />
        </mxCell>
        <mxCell id="LtAiTIp3Q3M_i4Ze3jFF-4" value="" style="endArrow=none;dashed=1;html=1;rounded=0;exitX=0.004;exitY=0.154;exitDx=0;exitDy=0;exitPerimeter=0;entryX=1;entryY=0.153;entryDx=0;entryDy=0;entryPerimeter=0;" edge="1" parent="1" source="LtAiTIp3Q3M_i4Ze3jFF-1" target="LtAiTIp3Q3M_i4Ze3jFF-1">
          <mxGeometry width="50" height="50" relative="1" as="geometry">
            <mxPoint x="360" y="270" as="sourcePoint" />
            <mxPoint x="410" y="220" as="targetPoint" />
          </mxGeometry>
        </mxCell>
        <mxCell id="LtAiTIp3Q3M_i4Ze3jFF-6" value="Daily Sampling Frequency" style="text;html=1;align=center;verticalAlign=middle;whiteSpace=wrap;rounded=0;fillColor=none;" vertex="1" parent="1">
          <mxGeometry x="220" y="110" width="70" height="40" as="geometry" />
        </mxCell>
        <mxCell id="LtAiTIp3Q3M_i4Ze3jFF-7" value="Wee&lt;span style=&quot;background-color: transparent; color: light-dark(rgb(0, 0, 0), rgb(255, 255, 255));&quot;&gt;kly Sampling Frequency&lt;/span&gt;" style="text;html=1;align=center;verticalAlign=middle;whiteSpace=wrap;rounded=0;fillColor=none;" vertex="1" parent="1">
          <mxGeometry x="379" y="110" width="70" height="40" as="geometry" />
        </mxCell>
        <mxCell id="LtAiTIp3Q3M_i4Ze3jFF-8" value="Monthly Sampling Frequency" style="text;html=1;align=center;verticalAlign=middle;whiteSpace=wrap;rounded=0;fillColor=none;" vertex="1" parent="1">
          <mxGeometry x="600" y="110" width="70" height="40" as="geometry" />
        </mxCell>
        <mxCell id="LtAiTIp3Q3M_i4Ze3jFF-9" value="" style="endArrow=none;dashed=1;html=1;dashPattern=1 3;strokeWidth=2;rounded=0;" edge="1" parent="1">
          <mxGeometry width="50" height="50" relative="1" as="geometry">
            <mxPoint x="320" y="490" as="sourcePoint" />
            <mxPoint x="320" y="160" as="targetPoint" />
          </mxGeometry>
        </mxCell>
        <mxCell id="LtAiTIp3Q3M_i4Ze3jFF-10" value="" style="endArrow=none;dashed=1;html=1;dashPattern=1 3;strokeWidth=2;rounded=0;" edge="1" parent="1">
          <mxGeometry width="50" height="50" relative="1" as="geometry">
            <mxPoint x="550" y="490" as="sourcePoint" />
            <mxPoint x="550" y="160" as="targetPoint" />
          </mxGeometry>
        </mxCell>
        <mxCell id="LtAiTIp3Q3M_i4Ze3jFF-11" value="" style="endArrow=none;dashed=1;html=1;dashPattern=1 3;strokeWidth=2;rounded=0;" edge="1" parent="1">
          <mxGeometry width="50" height="50" relative="1" as="geometry">
            <mxPoint x="190" y="490" as="sourcePoint" />
            <mxPoint x="190" y="160" as="targetPoint" />
          </mxGeometry>
        </mxCell>
        <mxCell id="LtAiTIp3Q3M_i4Ze3jFF-12" value="Date" style="text;html=1;align=center;verticalAlign=middle;whiteSpace=wrap;rounded=0;" vertex="1" parent="1">
          <mxGeometry x="120" y="120" width="70" height="40" as="geometry" />
        </mxCell>
        <mxCell id="LtAiTIp3Q3M_i4Ze3jFF-13" value="5.12.2022" style="text;html=1;align=center;verticalAlign=middle;whiteSpace=wrap;rounded=0;strokeColor=default;strokeWidth=1;" vertex="1" parent="1">
          <mxGeometry x="125" y="165" width="55" height="25" as="geometry" />
        </mxCell>
        <mxCell id="LtAiTIp3Q3M_i4Ze3jFF-14" value="5.12.2023" style="text;html=1;align=center;verticalAlign=middle;whiteSpace=wrap;rounded=0;strokeColor=default;" vertex="1" parent="1">
          <mxGeometry x="127.5" y="432.5" width="55" height="30" as="geometry" />
        </mxCell>
        <mxCell id="LtAiTIp3Q3M_i4Ze3jFF-24" value="" style="rounded=1;whiteSpace=wrap;html=1;fillColor=#fff2cc;strokeColor=#d6b656;" vertex="1" parent="1">
          <mxGeometry x="230" y="165" width="50" height="20" as="geometry" />
        </mxCell>
        <mxCell id="LtAiTIp3Q3M_i4Ze3jFF-25" value="" style="rounded=1;whiteSpace=wrap;html=1;fillColor=#fff2cc;strokeColor=#d6b656;" vertex="1" parent="1">
          <mxGeometry x="230" y="190" width="50" height="20" as="geometry" />
        </mxCell>
        <mxCell id="LtAiTIp3Q3M_i4Ze3jFF-28" value="" style="rounded=1;whiteSpace=wrap;html=1;fillColor=#fff2cc;strokeColor=#d6b656;" vertex="1" parent="1">
          <mxGeometry x="230" y="220" width="50" height="20" as="geometry" />
        </mxCell>
        <mxCell id="LtAiTIp3Q3M_i4Ze3jFF-29" value="" style="rounded=1;whiteSpace=wrap;html=1;fillColor=#fff2cc;strokeColor=#d6b656;" vertex="1" parent="1">
          <mxGeometry x="230" y="245" width="50" height="20" as="geometry" />
        </mxCell>
        <mxCell id="LtAiTIp3Q3M_i4Ze3jFF-30" value="" style="rounded=1;whiteSpace=wrap;html=1;fillColor=#fff2cc;strokeColor=#d6b656;" vertex="1" parent="1">
          <mxGeometry x="230" y="272.5" width="50" height="20" as="geometry" />
        </mxCell>
        <mxCell id="LtAiTIp3Q3M_i4Ze3jFF-31" value="" style="rounded=1;whiteSpace=wrap;html=1;fillColor=#fff2cc;strokeColor=#d6b656;" vertex="1" parent="1">
          <mxGeometry x="230" y="297.5" width="50" height="20" as="geometry" />
        </mxCell>
        <mxCell id="LtAiTIp3Q3M_i4Ze3jFF-32" value="" style="rounded=1;whiteSpace=wrap;html=1;fillColor=#fff2cc;strokeColor=#d6b656;" vertex="1" parent="1">
          <mxGeometry x="230" y="330" width="50" height="20" as="geometry" />
        </mxCell>
        <mxCell id="LtAiTIp3Q3M_i4Ze3jFF-33" value="" style="rounded=1;whiteSpace=wrap;html=1;fillColor=#fff2cc;strokeColor=#d6b656;" vertex="1" parent="1">
          <mxGeometry x="230" y="355" width="50" height="20" as="geometry" />
        </mxCell>
        <mxCell id="LtAiTIp3Q3M_i4Ze3jFF-34" value="" style="rounded=1;whiteSpace=wrap;html=1;fillColor=#fff2cc;strokeColor=#d6b656;" vertex="1" parent="1">
          <mxGeometry x="230" y="380" width="50" height="20" as="geometry" />
        </mxCell>
        <mxCell id="LtAiTIp3Q3M_i4Ze3jFF-35" value="" style="rounded=1;whiteSpace=wrap;html=1;fillColor=#fff2cc;strokeColor=#d6b656;" vertex="1" parent="1">
          <mxGeometry x="230" y="405" width="50" height="20" as="geometry" />
        </mxCell>
        <mxCell id="LtAiTIp3Q3M_i4Ze3jFF-36" value="" style="rounded=1;whiteSpace=wrap;html=1;fillColor=#fff2cc;strokeColor=#d6b656;" vertex="1" parent="1">
          <mxGeometry x="230" y="432.5" width="50" height="20" as="geometry" />
        </mxCell>
        <mxCell id="LtAiTIp3Q3M_i4Ze3jFF-37" value="" style="rounded=1;whiteSpace=wrap;html=1;fillColor=#fff2cc;strokeColor=#d6b656;" vertex="1" parent="1">
          <mxGeometry x="230" y="457.5" width="50" height="20" as="geometry" />
        </mxCell>
        <mxCell id="LtAiTIp3Q3M_i4Ze3jFF-38" value="" style="rounded=1;whiteSpace=wrap;html=1;fillColor=#dae8fc;strokeColor=#6c8ebf;" vertex="1" parent="1">
          <mxGeometry x="389" y="165" width="50" height="20" as="geometry" />
        </mxCell>
        <mxCell id="LtAiTIp3Q3M_i4Ze3jFF-39" value="" style="rounded=1;whiteSpace=wrap;html=1;fillColor=#f8cecc;strokeColor=#b85450;" vertex="1" parent="1">
          <mxGeometry x="389" y="220" width="50" height="20" as="geometry" />
        </mxCell>
        <mxCell id="LtAiTIp3Q3M_i4Ze3jFF-40" value="" style="rounded=1;whiteSpace=wrap;html=1;fillColor=#e1d5e7;strokeColor=#9673a6;" vertex="1" parent="1">
          <mxGeometry x="389" y="272.5" width="50" height="20" as="geometry" />
        </mxCell>
        <mxCell id="LtAiTIp3Q3M_i4Ze3jFF-41" value="" style="rounded=1;whiteSpace=wrap;html=1;fillColor=#fff2cc;strokeColor=#d6b656;" vertex="1" parent="1">
          <mxGeometry x="389" y="330" width="50" height="20" as="geometry" />
        </mxCell>
        <mxCell id="LtAiTIp3Q3M_i4Ze3jFF-42" value="" style="rounded=1;whiteSpace=wrap;html=1;fillColor=#d5e8d4;strokeColor=#82b366;" vertex="1" parent="1">
          <mxGeometry x="389" y="380" width="50" height="20" as="geometry" />
        </mxCell>
        <mxCell id="LtAiTIp3Q3M_i4Ze3jFF-43" value="" style="rounded=1;whiteSpace=wrap;html=1;fillColor=#ffe6cc;strokeColor=#d79b00;" vertex="1" parent="1">
          <mxGeometry x="389" y="432.5" width="50" height="20" as="geometry" />
        </mxCell>
        <mxCell id="LtAiTIp3Q3M_i4Ze3jFF-44" value="" style="rounded=1;whiteSpace=wrap;html=1;fillColor=#dae8fc;strokeColor=#6c8ebf;" vertex="1" parent="1">
          <mxGeometry x="610" y="165" width="50" height="20" as="geometry" />
        </mxCell>
        <mxCell id="LtAiTIp3Q3M_i4Ze3jFF-45" value="" style="rounded=1;whiteSpace=wrap;html=1;fillColor=#f8cecc;strokeColor=#b85450;" vertex="1" parent="1">
          <mxGeometry x="610" y="272.5" width="50" height="20" as="geometry" />
        </mxCell>
        <mxCell id="LtAiTIp3Q3M_i4Ze3jFF-46" value="" style="rounded=1;whiteSpace=wrap;html=1;fillColor=#e1d5e7;strokeColor=#9673a6;" vertex="1" parent="1">
          <mxGeometry x="610" y="380" width="50" height="20" as="geometry" />
        </mxCell>
        <mxCell id="LtAiTIp3Q3M_i4Ze3jFF-48" value="" style="shape=crossbar;whiteSpace=wrap;html=1;rounded=1;rotation=90;" vertex="1" parent="1">
          <mxGeometry x="605" y="227.5" width="60" height="5" as="geometry" />
        </mxCell>
        <mxCell id="LtAiTIp3Q3M_i4Ze3jFF-53" value="" style="shape=crossbar;whiteSpace=wrap;html=1;rounded=1;rotation=90;" vertex="1" parent="1">
          <mxGeometry x="605" y="337.5" width="60" height="5" as="geometry" />
        </mxCell>
        <mxCell id="LtAiTIp3Q3M_i4Ze3jFF-54" value="" style="shape=crossbar;whiteSpace=wrap;html=1;rounded=1;rotation=90;" vertex="1" parent="1">
          <mxGeometry x="404" y="310" width="20" height="5" as="geometry" />
        </mxCell>
        <mxCell id="LtAiTIp3Q3M_i4Ze3jFF-56" value="" style="shape=crossbar;whiteSpace=wrap;html=1;rounded=1;rotation=90;" vertex="1" parent="1">
          <mxGeometry x="605" y="432.5" width="60" height="5" as="geometry" />
        </mxCell>
        <mxCell id="LtAiTIp3Q3M_i4Ze3jFF-58" value="" style="shape=crossbar;whiteSpace=wrap;html=1;rounded=1;rotation=90;" vertex="1" parent="1">
          <mxGeometry x="404" y="197.5" width="20" height="5" as="geometry" />
        </mxCell>
        <mxCell id="LtAiTIp3Q3M_i4Ze3jFF-61" value="" style="shape=crossbar;whiteSpace=wrap;html=1;rounded=1;rotation=90;" vertex="1" parent="1">
          <mxGeometry x="404" y="252.5" width="20" height="5" as="geometry" />
        </mxCell>
        <mxCell id="LtAiTIp3Q3M_i4Ze3jFF-62" value="" style="shape=crossbar;whiteSpace=wrap;html=1;rounded=1;rotation=90;" vertex="1" parent="1">
          <mxGeometry x="404" y="362.5" width="20" height="5" as="geometry" />
        </mxCell>
        <mxCell id="LtAiTIp3Q3M_i4Ze3jFF-63" value="" style="shape=crossbar;whiteSpace=wrap;html=1;rounded=1;rotation=90;" vertex="1" parent="1">
          <mxGeometry x="404" y="465" width="20" height="5" as="geometry" />
        </mxCell>
        <mxCell id="LtAiTIp3Q3M_i4Ze3jFF-65" value="" style="shape=crossbar;whiteSpace=wrap;html=1;rounded=1;rotation=90;" vertex="1" parent="1">
          <mxGeometry x="404" y="412.5" width="20" height="5" as="geometry" />
        </mxCell>
        <mxCell id="LtAiTIp3Q3M_i4Ze3jFF-68" value="" style="shape=flexArrow;endArrow=classic;html=1;rounded=0;endWidth=5.517241379310345;endSize=5.2620689655172415;" edge="1" parent="1">
          <mxGeometry width="50" height="50" relative="1" as="geometry">
            <mxPoint x="740" y="197.5" as="sourcePoint" />
            <mxPoint x="740" y="427.5" as="targetPoint" />
          </mxGeometry>
        </mxCell>
        <mxCell id="LtAiTIp3Q3M_i4Ze3jFF-70" value="Forward filling values" style="edgeLabel;html=1;align=center;verticalAlign=middle;resizable=0;points=[];" vertex="1" connectable="0" parent="LtAiTIp3Q3M_i4Ze3jFF-68">
          <mxGeometry x="-0.5916" y="-3" relative="1" as="geometry">
            <mxPoint as="offset" />
          </mxGeometry>
        </mxCell>
        <mxCell id="LtAiTIp3Q3M_i4Ze3jFF-72" value="" style="shape=ext;double=1;rounded=1;whiteSpace=wrap;html=1;" vertex="1" parent="1">
          <mxGeometry x="113" y="510" width="600" height="390" as="geometry" />
        </mxCell>
        <mxCell id="LtAiTIp3Q3M_i4Ze3jFF-73" value="" style="endArrow=none;dashed=1;html=1;rounded=0;exitX=0.004;exitY=0.154;exitDx=0;exitDy=0;exitPerimeter=0;entryX=1;entryY=0.153;entryDx=0;entryDy=0;entryPerimeter=0;" edge="1" source="LtAiTIp3Q3M_i4Ze3jFF-72" target="LtAiTIp3Q3M_i4Ze3jFF-72" parent="1">
          <mxGeometry width="50" height="50" relative="1" as="geometry">
            <mxPoint x="359" y="680" as="sourcePoint" />
            <mxPoint x="409" y="630" as="targetPoint" />
          </mxGeometry>
        </mxCell>
        <mxCell id="LtAiTIp3Q3M_i4Ze3jFF-74" value="Daily Sampling Frequency" style="text;html=1;align=center;verticalAlign=middle;whiteSpace=wrap;rounded=0;fillColor=none;" vertex="1" parent="1">
          <mxGeometry x="219" y="520" width="70" height="40" as="geometry" />
        </mxCell>
        <mxCell id="LtAiTIp3Q3M_i4Ze3jFF-75" value="Wee&lt;span style=&quot;background-color: transparent; color: light-dark(rgb(0, 0, 0), rgb(255, 255, 255));&quot;&gt;kly Sampling Frequency&lt;/span&gt;" style="text;html=1;align=center;verticalAlign=middle;whiteSpace=wrap;rounded=0;fillColor=none;" vertex="1" parent="1">
          <mxGeometry x="378" y="520" width="70" height="40" as="geometry" />
        </mxCell>
        <mxCell id="LtAiTIp3Q3M_i4Ze3jFF-76" value="Monthly Sampling Frequency" style="text;html=1;align=center;verticalAlign=middle;whiteSpace=wrap;rounded=0;fillColor=none;" vertex="1" parent="1">
          <mxGeometry x="599" y="520" width="70" height="40" as="geometry" />
        </mxCell>
        <mxCell id="LtAiTIp3Q3M_i4Ze3jFF-77" value="" style="endArrow=none;dashed=1;html=1;dashPattern=1 3;strokeWidth=2;rounded=0;" edge="1" parent="1">
          <mxGeometry width="50" height="50" relative="1" as="geometry">
            <mxPoint x="319" y="900" as="sourcePoint" />
            <mxPoint x="319" y="570" as="targetPoint" />
          </mxGeometry>
        </mxCell>
        <mxCell id="LtAiTIp3Q3M_i4Ze3jFF-78" value="" style="endArrow=none;dashed=1;html=1;dashPattern=1 3;strokeWidth=2;rounded=0;" edge="1" parent="1">
          <mxGeometry width="50" height="50" relative="1" as="geometry">
            <mxPoint x="549" y="900" as="sourcePoint" />
            <mxPoint x="549" y="570" as="targetPoint" />
          </mxGeometry>
        </mxCell>
        <mxCell id="LtAiTIp3Q3M_i4Ze3jFF-79" value="" style="endArrow=none;dashed=1;html=1;dashPattern=1 3;strokeWidth=2;rounded=0;" edge="1" parent="1">
          <mxGeometry width="50" height="50" relative="1" as="geometry">
            <mxPoint x="189" y="900" as="sourcePoint" />
            <mxPoint x="189" y="570" as="targetPoint" />
          </mxGeometry>
        </mxCell>
        <mxCell id="LtAiTIp3Q3M_i4Ze3jFF-80" value="Date" style="text;html=1;align=center;verticalAlign=middle;whiteSpace=wrap;rounded=0;" vertex="1" parent="1">
          <mxGeometry x="119" y="530" width="70" height="40" as="geometry" />
        </mxCell>
        <mxCell id="LtAiTIp3Q3M_i4Ze3jFF-81" value="5.12.2022" style="text;html=1;align=center;verticalAlign=middle;whiteSpace=wrap;rounded=0;strokeColor=default;strokeWidth=1;" vertex="1" parent="1">
          <mxGeometry x="124" y="575" width="55" height="25" as="geometry" />
        </mxCell>
        <mxCell id="LtAiTIp3Q3M_i4Ze3jFF-82" value="5.12.2023" style="text;html=1;align=center;verticalAlign=middle;whiteSpace=wrap;rounded=0;strokeColor=default;" vertex="1" parent="1">
          <mxGeometry x="126.5" y="842.5" width="55" height="30" as="geometry" />
        </mxCell>
        <mxCell id="LtAiTIp3Q3M_i4Ze3jFF-83" value="" style="rounded=1;whiteSpace=wrap;html=1;fillColor=#fff2cc;strokeColor=#d6b656;" vertex="1" parent="1">
          <mxGeometry x="229" y="575" width="50" height="20" as="geometry" />
        </mxCell>
        <mxCell id="LtAiTIp3Q3M_i4Ze3jFF-84" value="" style="rounded=1;whiteSpace=wrap;html=1;fillColor=#fff2cc;strokeColor=#d6b656;" vertex="1" parent="1">
          <mxGeometry x="229" y="600" width="50" height="20" as="geometry" />
        </mxCell>
        <mxCell id="LtAiTIp3Q3M_i4Ze3jFF-85" value="" style="rounded=1;whiteSpace=wrap;html=1;fillColor=#fff2cc;strokeColor=#d6b656;" vertex="1" parent="1">
          <mxGeometry x="229" y="630" width="50" height="20" as="geometry" />
        </mxCell>
        <mxCell id="LtAiTIp3Q3M_i4Ze3jFF-86" value="" style="rounded=1;whiteSpace=wrap;html=1;fillColor=#fff2cc;strokeColor=#d6b656;" vertex="1" parent="1">
          <mxGeometry x="229" y="655" width="50" height="20" as="geometry" />
        </mxCell>
        <mxCell id="LtAiTIp3Q3M_i4Ze3jFF-87" value="" style="rounded=1;whiteSpace=wrap;html=1;fillColor=#fff2cc;strokeColor=#d6b656;" vertex="1" parent="1">
          <mxGeometry x="229" y="682.5" width="50" height="20" as="geometry" />
        </mxCell>
        <mxCell id="LtAiTIp3Q3M_i4Ze3jFF-88" value="" style="rounded=1;whiteSpace=wrap;html=1;fillColor=#fff2cc;strokeColor=#d6b656;" vertex="1" parent="1">
          <mxGeometry x="229" y="707.5" width="50" height="20" as="geometry" />
        </mxCell>
        <mxCell id="LtAiTIp3Q3M_i4Ze3jFF-89" value="" style="rounded=1;whiteSpace=wrap;html=1;fillColor=#fff2cc;strokeColor=#d6b656;" vertex="1" parent="1">
          <mxGeometry x="229" y="740" width="50" height="20" as="geometry" />
        </mxCell>
        <mxCell id="LtAiTIp3Q3M_i4Ze3jFF-90" value="" style="rounded=1;whiteSpace=wrap;html=1;fillColor=#fff2cc;strokeColor=#d6b656;" vertex="1" parent="1">
          <mxGeometry x="229" y="765" width="50" height="20" as="geometry" />
        </mxCell>
        <mxCell id="LtAiTIp3Q3M_i4Ze3jFF-91" value="" style="rounded=1;whiteSpace=wrap;html=1;fillColor=#fff2cc;strokeColor=#d6b656;" vertex="1" parent="1">
          <mxGeometry x="229" y="790" width="50" height="20" as="geometry" />
        </mxCell>
        <mxCell id="LtAiTIp3Q3M_i4Ze3jFF-92" value="" style="rounded=1;whiteSpace=wrap;html=1;fillColor=#fff2cc;strokeColor=#d6b656;" vertex="1" parent="1">
          <mxGeometry x="229" y="815" width="50" height="20" as="geometry" />
        </mxCell>
        <mxCell id="LtAiTIp3Q3M_i4Ze3jFF-93" value="" style="rounded=1;whiteSpace=wrap;html=1;fillColor=#fff2cc;strokeColor=#d6b656;" vertex="1" parent="1">
          <mxGeometry x="229" y="842.5" width="50" height="20" as="geometry" />
        </mxCell>
        <mxCell id="LtAiTIp3Q3M_i4Ze3jFF-94" value="" style="rounded=1;whiteSpace=wrap;html=1;fillColor=#fff2cc;strokeColor=#d6b656;" vertex="1" parent="1">
          <mxGeometry x="229" y="867.5" width="50" height="20" as="geometry" />
        </mxCell>
        <mxCell id="LtAiTIp3Q3M_i4Ze3jFF-115" value="" style="rounded=1;whiteSpace=wrap;html=1;fillColor=#dae8fc;strokeColor=#6c8ebf;" vertex="1" parent="1">
          <mxGeometry x="389" y="575" width="50" height="20" as="geometry" />
        </mxCell>
        <mxCell id="LtAiTIp3Q3M_i4Ze3jFF-116" value="" style="rounded=1;whiteSpace=wrap;html=1;fillColor=#dae8fc;strokeColor=#6c8ebf;" vertex="1" parent="1">
          <mxGeometry x="389" y="600" width="50" height="20" as="geometry" />
        </mxCell>
        <mxCell id="LtAiTIp3Q3M_i4Ze3jFF-117" value="" style="rounded=1;whiteSpace=wrap;html=1;fillColor=#f8cecc;strokeColor=#b85450;" vertex="1" parent="1">
          <mxGeometry x="389" y="630" width="50" height="20" as="geometry" />
        </mxCell>
        <mxCell id="LtAiTIp3Q3M_i4Ze3jFF-118" value="" style="rounded=1;whiteSpace=wrap;html=1;fillColor=#f8cecc;strokeColor=#b85450;" vertex="1" parent="1">
          <mxGeometry x="389" y="655" width="50" height="20" as="geometry" />
        </mxCell>
        <mxCell id="LtAiTIp3Q3M_i4Ze3jFF-119" value="" style="rounded=1;whiteSpace=wrap;html=1;fillColor=#e1d5e7;strokeColor=#9673a6;" vertex="1" parent="1">
          <mxGeometry x="389" y="682.5" width="50" height="20" as="geometry" />
        </mxCell>
        <mxCell id="LtAiTIp3Q3M_i4Ze3jFF-120" value="" style="rounded=1;whiteSpace=wrap;html=1;fillColor=#e1d5e7;strokeColor=#9673a6;" vertex="1" parent="1">
          <mxGeometry x="389" y="707.5" width="50" height="20" as="geometry" />
        </mxCell>
        <mxCell id="LtAiTIp3Q3M_i4Ze3jFF-121" value="" style="rounded=1;whiteSpace=wrap;html=1;fillColor=#fff2cc;strokeColor=#d6b656;" vertex="1" parent="1">
          <mxGeometry x="389" y="740" width="50" height="20" as="geometry" />
        </mxCell>
        <mxCell id="LtAiTIp3Q3M_i4Ze3jFF-122" value="" style="rounded=1;whiteSpace=wrap;html=1;fillColor=#fff2cc;strokeColor=#d6b656;" vertex="1" parent="1">
          <mxGeometry x="389" y="765" width="50" height="20" as="geometry" />
        </mxCell>
        <mxCell id="LtAiTIp3Q3M_i4Ze3jFF-123" value="" style="rounded=1;whiteSpace=wrap;html=1;fillColor=#d5e8d4;strokeColor=#82b366;" vertex="1" parent="1">
          <mxGeometry x="389" y="790" width="50" height="20" as="geometry" />
        </mxCell>
        <mxCell id="LtAiTIp3Q3M_i4Ze3jFF-124" value="" style="rounded=1;whiteSpace=wrap;html=1;fillColor=#d5e8d4;strokeColor=#82b366;" vertex="1" parent="1">
          <mxGeometry x="389" y="815" width="50" height="20" as="geometry" />
        </mxCell>
        <mxCell id="LtAiTIp3Q3M_i4Ze3jFF-125" value="" style="rounded=1;whiteSpace=wrap;html=1;fillColor=#ffe6cc;strokeColor=#d79b00;" vertex="1" parent="1">
          <mxGeometry x="389" y="842.5" width="50" height="20" as="geometry" />
        </mxCell>
        <mxCell id="LtAiTIp3Q3M_i4Ze3jFF-126" value="" style="rounded=1;whiteSpace=wrap;html=1;fillColor=#ffe6cc;strokeColor=#d79b00;" vertex="1" parent="1">
          <mxGeometry x="389" y="867.5" width="50" height="20" as="geometry" />
        </mxCell>
        <mxCell id="LtAiTIp3Q3M_i4Ze3jFF-127" value="" style="rounded=1;whiteSpace=wrap;html=1;fillColor=#dae8fc;strokeColor=#6c8ebf;" vertex="1" parent="1">
          <mxGeometry x="610" y="575" width="50" height="20" as="geometry" />
        </mxCell>
        <mxCell id="LtAiTIp3Q3M_i4Ze3jFF-128" value="" style="rounded=1;whiteSpace=wrap;html=1;fillColor=#dae8fc;strokeColor=#6c8ebf;" vertex="1" parent="1">
          <mxGeometry x="610" y="600" width="50" height="20" as="geometry" />
        </mxCell>
        <mxCell id="LtAiTIp3Q3M_i4Ze3jFF-129" value="" style="rounded=1;whiteSpace=wrap;html=1;fillColor=#dae8fc;strokeColor=#6c8ebf;" vertex="1" parent="1">
          <mxGeometry x="610" y="630" width="50" height="20" as="geometry" />
        </mxCell>
        <mxCell id="LtAiTIp3Q3M_i4Ze3jFF-130" value="" style="rounded=1;whiteSpace=wrap;html=1;fillColor=#dae8fc;strokeColor=#6c8ebf;" vertex="1" parent="1">
          <mxGeometry x="610" y="655" width="50" height="20" as="geometry" />
        </mxCell>
        <mxCell id="LtAiTIp3Q3M_i4Ze3jFF-131" value="" style="rounded=1;whiteSpace=wrap;html=1;fillColor=#f8cecc;strokeColor=#b85450;" vertex="1" parent="1">
          <mxGeometry x="610" y="682.5" width="50" height="20" as="geometry" />
        </mxCell>
        <mxCell id="LtAiTIp3Q3M_i4Ze3jFF-132" value="" style="rounded=1;whiteSpace=wrap;html=1;fillColor=#f8cecc;strokeColor=#b85450;" vertex="1" parent="1">
          <mxGeometry x="610" y="707.5" width="50" height="20" as="geometry" />
        </mxCell>
        <mxCell id="LtAiTIp3Q3M_i4Ze3jFF-133" value="" style="rounded=1;whiteSpace=wrap;html=1;fillColor=#f8cecc;strokeColor=#b85450;" vertex="1" parent="1">
          <mxGeometry x="610" y="740" width="50" height="20" as="geometry" />
        </mxCell>
        <mxCell id="LtAiTIp3Q3M_i4Ze3jFF-134" value="" style="rounded=1;whiteSpace=wrap;html=1;fillColor=#f8cecc;strokeColor=#b85450;" vertex="1" parent="1">
          <mxGeometry x="610" y="765" width="50" height="20" as="geometry" />
        </mxCell>
        <mxCell id="LtAiTIp3Q3M_i4Ze3jFF-135" value="" style="rounded=1;whiteSpace=wrap;html=1;fillColor=#e1d5e7;strokeColor=#9673a6;" vertex="1" parent="1">
          <mxGeometry x="610" y="790" width="50" height="20" as="geometry" />
        </mxCell>
        <mxCell id="LtAiTIp3Q3M_i4Ze3jFF-136" value="" style="rounded=1;whiteSpace=wrap;html=1;fillColor=#e1d5e7;strokeColor=#9673a6;" vertex="1" parent="1">
          <mxGeometry x="610" y="815" width="50" height="20" as="geometry" />
        </mxCell>
        <mxCell id="LtAiTIp3Q3M_i4Ze3jFF-137" value="" style="rounded=1;whiteSpace=wrap;html=1;fillColor=#e1d5e7;strokeColor=#9673a6;" vertex="1" parent="1">
          <mxGeometry x="610" y="842.5" width="50" height="20" as="geometry" />
        </mxCell>
        <mxCell id="LtAiTIp3Q3M_i4Ze3jFF-138" value="" style="rounded=1;whiteSpace=wrap;html=1;fillColor=#e1d5e7;strokeColor=#9673a6;" vertex="1" parent="1">
          <mxGeometry x="610" y="867.5" width="50" height="20" as="geometry" />
        </mxCell>
      </root>
    </mxGraphModel>
  </diagram>
</mxfile>
